<svg width="207" height="62" viewBox="0 0 207 62" fill="none" xmlns="http://www.w3.org/2000/svg">
<rect x="0.5" y="0.993164" width="206" height="60" rx="9.5" fill="black" stroke="#FEFEFE"/>
<path d="M81.4834 16.1532C82.3714 16.1532 83.1474 16.3252 83.8114 16.6692C84.4834 17.0052 84.9994 17.4932 85.3594 18.1332C85.7274 18.7652 85.9114 19.5052 85.9114 20.3532C85.9114 21.2012 85.7274 21.9372 85.3594 22.5612C84.9994 23.1852 84.4834 23.6652 83.8114 24.0012C83.1474 24.3292 82.3714 24.4932 81.4834 24.4932H78.7594V16.1532H81.4834ZM81.4834 23.3772C82.4594 23.3772 83.2074 23.1132 83.7274 22.5852C84.2474 22.0572 84.5074 21.3132 84.5074 20.3532C84.5074 19.3852 84.2474 18.6292 83.7274 18.0852C83.2074 17.5412 82.4594 17.2692 81.4834 17.2692H80.1274V23.3772H81.4834ZM90.1352 24.6012C89.5112 24.6012 88.9472 24.4612 88.4432 24.1812C87.9392 23.8932 87.5432 23.4932 87.2552 22.9812C86.9672 22.4612 86.8232 21.8612 86.8232 21.1812C86.8232 20.5092 86.9712 19.9132 87.2672 19.3932C87.5632 18.8732 87.9672 18.4732 88.4792 18.1932C88.9912 17.9132 89.5632 17.7732 90.1952 17.7732C90.8272 17.7732 91.3992 17.9132 91.9112 18.1932C92.4232 18.4732 92.8272 18.8732 93.1232 19.3932C93.4192 19.9132 93.5672 20.5092 93.5672 21.1812C93.5672 21.8532 93.4152 22.4492 93.1112 22.9692C92.8072 23.4892 92.3912 23.8932 91.8632 24.1812C91.3432 24.4612 90.7672 24.6012 90.1352 24.6012ZM90.1352 23.4132C90.4872 23.4132 90.8152 23.3292 91.1192 23.1612C91.4312 22.9932 91.6832 22.7412 91.8752 22.4052C92.0672 22.0692 92.1632 21.6612 92.1632 21.1812C92.1632 20.7012 92.0712 20.2972 91.8872 19.9692C91.7032 19.6332 91.4592 19.3812 91.1552 19.2132C90.8512 19.0452 90.5232 18.9612 90.1712 18.9612C89.8192 18.9612 89.4912 19.0452 89.1872 19.2132C88.8912 19.3812 88.6552 19.6332 88.4792 19.9692C88.3032 20.2972 88.2152 20.7012 88.2152 21.1812C88.2152 21.8932 88.3952 22.4452 88.7552 22.8372C89.1232 23.2212 89.5832 23.4132 90.1352 23.4132ZM103.8 17.8812L101.748 24.4932H100.308L98.9755 19.6092L97.6435 24.4932H96.2035L94.1395 17.8812H95.5315L96.9115 23.1972L98.3155 17.8812H99.7435L101.088 23.1732L102.456 17.8812H103.8ZM108.158 17.7732C108.678 17.7732 109.142 17.8812 109.55 18.0972C109.966 18.3132 110.29 18.6332 110.522 19.0572C110.754 19.4812 110.87 19.9932 110.87 20.5932V24.4932H109.514V20.7972C109.514 20.2052 109.366 19.7532 109.07 19.4412C108.774 19.1212 108.37 18.9612 107.858 18.9612C107.346 18.9612 106.938 19.1212 106.634 19.4412C106.338 19.7532 106.19 20.2052 106.19 20.7972V24.4932H104.822V17.8812H106.19V18.6372C106.414 18.3652 106.698 18.1532 107.042 18.0012C107.394 17.8492 107.766 17.7732 108.158 17.7732ZM113.983 15.6132V24.4932H112.615V15.6132H113.983ZM118.647 24.6012C118.023 24.6012 117.459 24.4612 116.955 24.1812C116.451 23.8932 116.055 23.4932 115.767 22.9812C115.479 22.4612 115.335 21.8612 115.335 21.1812C115.335 20.5092 115.483 19.9132 115.779 19.3932C116.075 18.8732 116.479 18.4732 116.991 18.1932C117.503 17.9132 118.075 17.7732 118.707 17.7732C119.339 17.7732 119.911 17.9132 120.423 18.1932C120.935 18.4732 121.339 18.8732 121.635 19.3932C121.931 19.9132 122.079 20.5092 122.079 21.1812C122.079 21.8532 121.927 22.4492 121.623 22.9692C121.319 23.4892 120.903 23.8932 120.375 24.1812C119.855 24.4612 119.279 24.6012 118.647 24.6012ZM118.647 23.4132C118.999 23.4132 119.327 23.3292 119.631 23.1612C119.943 22.9932 120.195 22.7412 120.387 22.4052C120.579 22.0692 120.675 21.6612 120.675 21.1812C120.675 20.7012 120.583 20.2972 120.399 19.9692C120.215 19.6332 119.971 19.3812 119.667 19.2132C119.363 19.0452 119.035 18.9612 118.683 18.9612C118.331 18.9612 118.003 19.0452 117.699 19.2132C117.403 19.3812 117.167 19.6332 116.991 19.9692C116.815 20.2972 116.727 20.7012 116.727 21.1812C116.727 21.8932 116.907 22.4452 117.267 22.8372C117.635 23.2212 118.095 23.4132 118.647 23.4132ZM122.975 21.1572C122.975 20.4932 123.111 19.9052 123.383 19.3932C123.663 18.8812 124.039 18.4852 124.511 18.2052C124.991 17.9172 125.519 17.7732 126.095 17.7732C126.615 17.7732 127.067 17.8772 127.451 18.0852C127.843 18.2852 128.155 18.5372 128.387 18.8412V17.8812H129.767V24.4932H128.387V23.5092C128.155 23.8212 127.839 24.0812 127.439 24.2892C127.039 24.4972 126.583 24.6012 126.071 24.6012C125.503 24.6012 124.983 24.4572 124.511 24.1692C124.039 23.8732 123.663 23.4652 123.383 22.9452C123.111 22.4172 122.975 21.8212 122.975 21.1572ZM128.387 21.1812C128.387 20.7252 128.291 20.3292 128.099 19.9932C127.915 19.6572 127.671 19.4012 127.367 19.2252C127.063 19.0492 126.735 18.9612 126.383 18.9612C126.031 18.9612 125.703 19.0492 125.399 19.2252C125.095 19.3932 124.847 19.6452 124.655 19.9812C124.471 20.3092 124.379 20.7012 124.379 21.1572C124.379 21.6132 124.471 22.0132 124.655 22.3572C124.847 22.7012 125.095 22.9652 125.399 23.1492C125.711 23.3252 126.039 23.4132 126.383 23.4132C126.735 23.4132 127.063 23.3252 127.367 23.1492C127.671 22.9732 127.915 22.7172 128.099 22.3812C128.291 22.0372 128.387 21.6372 128.387 21.1812ZM131.108 21.1572C131.108 20.4932 131.244 19.9052 131.516 19.3932C131.796 18.8812 132.172 18.4852 132.644 18.2052C133.124 17.9172 133.656 17.7732 134.24 17.7732C134.672 17.7732 135.096 17.8692 135.512 18.0612C135.936 18.2452 136.272 18.4932 136.52 18.8052V15.6132H137.9V24.4932H136.52V23.4972C136.296 23.8172 135.984 24.0812 135.584 24.2892C135.192 24.4972 134.74 24.6012 134.228 24.6012C133.652 24.6012 133.124 24.4572 132.644 24.1692C132.172 23.8732 131.796 23.4652 131.516 22.9452C131.244 22.4172 131.108 21.8212 131.108 21.1572ZM136.52 21.1812C136.52 20.7252 136.424 20.3292 136.232 19.9932C136.048 19.6572 135.804 19.4012 135.5 19.2252C135.196 19.0492 134.868 18.9612 134.516 18.9612C134.164 18.9612 133.836 19.0492 133.532 19.2252C133.228 19.3932 132.98 19.6452 132.788 19.9812C132.604 20.3092 132.512 20.7012 132.512 21.1572C132.512 21.6132 132.604 22.0132 132.788 22.3572C132.98 22.7012 133.228 22.9652 133.532 23.1492C133.844 23.3252 134.172 23.4132 134.516 23.4132C134.868 23.4132 135.196 23.3252 135.5 23.1492C135.804 22.9732 136.048 22.7172 136.232 22.3812C136.424 22.0372 136.52 21.6372 136.52 21.1812ZM145.682 24.6012C145.058 24.6012 144.494 24.4612 143.99 24.1812C143.486 23.8932 143.09 23.4932 142.802 22.9812C142.514 22.4612 142.37 21.8612 142.37 21.1812C142.37 20.5092 142.518 19.9132 142.814 19.3932C143.11 18.8732 143.514 18.4732 144.026 18.1932C144.538 17.9132 145.11 17.7732 145.742 17.7732C146.374 17.7732 146.946 17.9132 147.458 18.1932C147.97 18.4732 148.374 18.8732 148.67 19.3932C148.966 19.9132 149.114 20.5092 149.114 21.1812C149.114 21.8532 148.962 22.4492 148.658 22.9692C148.354 23.4892 147.938 23.8932 147.41 24.1812C146.89 24.4612 146.314 24.6012 145.682 24.6012ZM145.682 23.4132C146.034 23.4132 146.362 23.3292 146.666 23.1612C146.978 22.9932 147.23 22.7412 147.422 22.4052C147.614 22.0692 147.71 21.6612 147.71 21.1812C147.71 20.7012 147.618 20.2972 147.434 19.9692C147.25 19.6332 147.006 19.3812 146.702 19.2132C146.398 19.0452 146.07 18.9612 145.718 18.9612C145.366 18.9612 145.038 19.0452 144.734 19.2132C144.438 19.3812 144.202 19.6332 144.026 19.9692C143.85 20.2972 143.762 20.7012 143.762 21.1812C143.762 21.8932 143.942 22.4452 144.302 22.8372C144.67 23.2212 145.13 23.4132 145.682 23.4132ZM153.802 17.7732C154.322 17.7732 154.786 17.8812 155.194 18.0972C155.61 18.3132 155.934 18.6332 156.166 19.0572C156.398 19.4812 156.514 19.9932 156.514 20.5932V24.4932H155.158V20.7972C155.158 20.2052 155.01 19.7532 154.714 19.4412C154.418 19.1212 154.014 18.9612 153.502 18.9612C152.99 18.9612 152.582 19.1212 152.278 19.4412C151.982 19.7532 151.834 20.2052 151.834 20.7972V24.4932H150.466V17.8812H151.834V18.6372C152.058 18.3652 152.342 18.1532 152.686 18.0012C153.038 17.8492 153.41 17.7732 153.802 17.7732ZM162.973 18.9972V22.6572C162.973 22.9052 163.029 23.0852 163.141 23.1972C163.261 23.3012 163.461 23.3532 163.741 23.3532H164.581V24.4932H163.501C162.885 24.4932 162.413 24.3492 162.085 24.0612C161.757 23.7732 161.593 23.3052 161.593 22.6572V18.9972H160.813V17.8812H161.593V16.2372H162.973V17.8812H164.581V18.9972H162.973ZM169.261 17.7732C169.765 17.7732 170.213 17.8812 170.605 18.0972C171.005 18.3132 171.317 18.6332 171.541 19.0572C171.773 19.4812 171.889 19.9932 171.889 20.5932V24.4932H170.533V20.7972C170.533 20.2052 170.385 19.7532 170.089 19.4412C169.793 19.1212 169.389 18.9612 168.877 18.9612C168.365 18.9612 167.957 19.1212 167.653 19.4412C167.357 19.7532 167.209 20.2052 167.209 20.7972V24.4932H165.841V15.6132H167.209V18.6492C167.441 18.3692 167.733 18.1532 168.085 18.0012C168.445 17.8492 168.837 17.7732 169.261 17.7732ZM179.694 21.0252C179.694 21.2732 179.678 21.4972 179.646 21.6972H174.594C174.634 22.2252 174.83 22.6492 175.182 22.9692C175.534 23.2892 175.966 23.4492 176.478 23.4492C177.214 23.4492 177.734 23.1412 178.038 22.5252H179.514C179.314 23.1332 178.95 23.6332 178.422 24.0252C177.902 24.4092 177.254 24.6012 176.478 24.6012C175.846 24.6012 175.278 24.4612 174.774 24.1812C174.278 23.8932 173.886 23.4932 173.598 22.9812C173.318 22.4612 173.178 21.8612 173.178 21.1812C173.178 20.5012 173.314 19.9052 173.586 19.3932C173.866 18.8732 174.254 18.4732 174.75 18.1932C175.254 17.9132 175.83 17.7732 176.478 17.7732C177.102 17.7732 177.658 17.9092 178.146 18.1812C178.634 18.4532 179.014 18.8372 179.286 19.3332C179.558 19.8212 179.694 20.3852 179.694 21.0252ZM178.266 20.5932C178.258 20.0892 178.078 19.6852 177.726 19.3812C177.374 19.0772 176.938 18.9252 176.418 18.9252C175.946 18.9252 175.542 19.0772 175.206 19.3812C174.87 19.6772 174.67 20.0812 174.606 20.5932H178.266ZM89.6124 42.6532H83.7924L82.7924 45.4932H80.4124L85.3924 31.5732H88.0324L93.0124 45.4932H90.6124L89.6124 42.6532ZM88.9724 40.7932L86.7124 34.3332L84.4324 40.7932H88.9724ZM97.4577 36.0932C97.8444 35.5865 98.3711 35.1598 99.0377 34.8132C99.7044 34.4665 100.458 34.2932 101.298 34.2932C102.258 34.2932 103.131 34.5332 103.918 35.0132C104.718 35.4798 105.344 36.1398 105.798 36.9932C106.251 37.8465 106.478 38.8265 106.478 39.9332C106.478 41.0398 106.251 42.0332 105.798 42.9132C105.344 43.7798 104.718 44.4598 103.918 44.9532C103.131 45.4332 102.258 45.6732 101.298 45.6732C100.458 45.6732 99.7111 45.5065 99.0577 45.1732C98.4044 44.8265 97.8711 44.3998 97.4577 43.8932V50.7332H95.1777V34.4732H97.4577V36.0932ZM104.158 39.9332C104.158 39.1732 103.998 38.5198 103.678 37.9732C103.371 37.4132 102.958 36.9932 102.438 36.7132C101.931 36.4198 101.384 36.2732 100.798 36.2732C100.224 36.2732 99.6777 36.4198 99.1577 36.7132C98.6511 37.0065 98.2377 37.4332 97.9177 37.9932C97.6111 38.5532 97.4577 39.2132 97.4577 39.9732C97.4577 40.7332 97.6111 41.3998 97.9177 41.9732C98.2377 42.5332 98.6511 42.9598 99.1577 43.2532C99.6777 43.5465 100.224 43.6932 100.798 43.6932C101.384 43.6932 101.931 43.5465 102.438 43.2532C102.958 42.9465 103.371 42.5065 103.678 41.9332C103.998 41.3598 104.158 40.6932 104.158 39.9332ZM111.012 36.0932C111.399 35.5865 111.926 35.1598 112.592 34.8132C113.259 34.4665 114.012 34.2932 114.852 34.2932C115.812 34.2932 116.686 34.5332 117.472 35.0132C118.272 35.4798 118.899 36.1398 119.352 36.9932C119.806 37.8465 120.032 38.8265 120.032 39.9332C120.032 41.0398 119.806 42.0332 119.352 42.9132C118.899 43.7798 118.272 44.4598 117.472 44.9532C116.686 45.4332 115.812 45.6732 114.852 45.6732C114.012 45.6732 113.266 45.5065 112.612 45.1732C111.959 44.8265 111.426 44.3998 111.012 43.8932V50.7332H108.732V34.4732H111.012V36.0932ZM117.712 39.9332C117.712 39.1732 117.552 38.5198 117.232 37.9732C116.926 37.4132 116.512 36.9932 115.992 36.7132C115.486 36.4198 114.939 36.2732 114.352 36.2732C113.779 36.2732 113.232 36.4198 112.712 36.7132C112.206 37.0065 111.792 37.4332 111.472 37.9932C111.166 38.5532 111.012 39.2132 111.012 39.9732C111.012 40.7332 111.166 41.3998 111.472 41.9732C111.792 42.5332 112.206 42.9598 112.712 43.2532C113.232 43.5465 113.779 43.6932 114.352 43.6932C114.939 43.6932 115.486 43.5465 115.992 43.2532C116.512 42.9465 116.926 42.5065 117.232 41.9332C117.552 41.3598 117.712 40.6932 117.712 39.9332ZM132.062 45.6332C131.129 45.6332 130.289 45.4732 129.542 45.1532C128.796 44.8198 128.209 44.3532 127.782 43.7532C127.356 43.1532 127.142 42.4532 127.142 41.6532H129.582C129.636 42.2532 129.869 42.7465 130.282 43.1332C130.709 43.5198 131.302 43.7132 132.062 43.7132C132.849 43.7132 133.462 43.5265 133.902 43.1532C134.342 42.7665 134.562 42.2732 134.562 41.6732C134.562 41.2065 134.422 40.8265 134.142 40.5332C133.876 40.2398 133.536 40.0132 133.122 39.8532C132.722 39.6932 132.162 39.5198 131.442 39.3332C130.536 39.0932 129.796 38.8532 129.222 38.6132C128.662 38.3598 128.182 37.9732 127.782 37.4532C127.382 36.9332 127.182 36.2398 127.182 35.3732C127.182 34.5732 127.382 33.8732 127.782 33.2732C128.182 32.6732 128.742 32.2132 129.462 31.8932C130.182 31.5732 131.016 31.4132 131.962 31.4132C133.309 31.4132 134.409 31.7532 135.262 32.4332C136.129 33.0998 136.609 34.0198 136.702 35.1932H134.182C134.142 34.6865 133.902 34.2532 133.462 33.8932C133.022 33.5332 132.442 33.3532 131.722 33.3532C131.069 33.3532 130.536 33.5198 130.122 33.8532C129.709 34.1865 129.502 34.6665 129.502 35.2932C129.502 35.7198 129.629 36.0732 129.882 36.3532C130.149 36.6198 130.482 36.8332 130.882 36.9932C131.282 37.1532 131.829 37.3265 132.522 37.5132C133.442 37.7665 134.189 38.0198 134.762 38.2732C135.349 38.5265 135.842 38.9198 136.242 39.4532C136.656 39.9732 136.862 40.6732 136.862 41.5532C136.862 42.2598 136.669 42.9265 136.282 43.5532C135.909 44.1798 135.356 44.6865 134.622 45.0732C133.902 45.4465 133.049 45.6332 132.062 45.6332ZM142.213 36.3332V42.4332C142.213 42.8465 142.306 43.1465 142.493 43.3332C142.693 43.5065 143.026 43.5932 143.493 43.5932H144.893V45.4932H143.093C142.066 45.4932 141.279 45.2532 140.733 44.7732C140.186 44.2932 139.913 43.5132 139.913 42.4332V36.3332H138.613V34.4732H139.913V31.7332H142.213V34.4732H144.893V36.3332H142.213ZM151.774 45.6732C150.734 45.6732 149.794 45.4398 148.954 44.9732C148.114 44.4932 147.454 43.8265 146.974 42.9732C146.494 42.1065 146.254 41.1065 146.254 39.9732C146.254 38.8532 146.501 37.8598 146.994 36.9932C147.487 36.1265 148.161 35.4598 149.014 34.9932C149.867 34.5265 150.821 34.2932 151.874 34.2932C152.927 34.2932 153.881 34.5265 154.734 34.9932C155.587 35.4598 156.261 36.1265 156.754 36.9932C157.247 37.8598 157.494 38.8532 157.494 39.9732C157.494 41.0932 157.241 42.0865 156.734 42.9532C156.227 43.8198 155.534 44.4932 154.654 44.9732C153.787 45.4398 152.827 45.6732 151.774 45.6732ZM151.774 43.6932C152.361 43.6932 152.907 43.5532 153.414 43.2732C153.934 42.9932 154.354 42.5732 154.674 42.0132C154.994 41.4532 155.154 40.7732 155.154 39.9732C155.154 39.1732 155.001 38.4998 154.694 37.9532C154.387 37.3932 153.981 36.9732 153.474 36.6932C152.967 36.4132 152.421 36.2732 151.834 36.2732C151.247 36.2732 150.701 36.4132 150.194 36.6932C149.701 36.9732 149.307 37.3932 149.014 37.9532C148.721 38.4998 148.574 39.1732 148.574 39.9732C148.574 41.1598 148.874 42.0798 149.474 42.7332C150.087 43.3732 150.854 43.6932 151.774 43.6932ZM162.028 36.0732C162.361 35.5132 162.801 35.0798 163.348 34.7732C163.908 34.4532 164.568 34.2932 165.328 34.2932V36.6532H164.748C163.855 36.6532 163.175 36.8798 162.708 37.3332C162.255 37.7865 162.028 38.5732 162.028 39.6932V45.4932H159.748V34.4732H162.028V36.0732ZM177.524 39.7132C177.524 40.1265 177.497 40.4998 177.444 40.8332H169.024C169.09 41.7132 169.417 42.4198 170.004 42.9532C170.59 43.4865 171.31 43.7532 172.164 43.7532C173.39 43.7532 174.257 43.2398 174.764 42.2132H177.224C176.89 43.2265 176.284 44.0598 175.404 44.7132C174.537 45.3532 173.457 45.6732 172.164 45.6732C171.11 45.6732 170.164 45.4398 169.324 44.9732C168.497 44.4932 167.844 43.8265 167.364 42.9732C166.897 42.1065 166.664 41.1065 166.664 39.9732C166.664 38.8398 166.89 37.8465 167.344 36.9932C167.81 36.1265 168.457 35.4598 169.284 34.9932C170.124 34.5265 171.084 34.2932 172.164 34.2932C173.204 34.2932 174.13 34.5198 174.944 34.9732C175.757 35.4265 176.39 36.0665 176.844 36.8932C177.297 37.7065 177.524 38.6465 177.524 39.7132ZM175.144 38.9932C175.13 38.1532 174.83 37.4798 174.244 36.9732C173.657 36.4665 172.93 36.2132 172.064 36.2132C171.277 36.2132 170.604 36.4665 170.044 36.9732C169.484 37.4665 169.15 38.1398 169.044 38.9932H175.144Z" fill="white"/>
<path fill-rule="evenodd" clip-rule="evenodd" d="M46.9202 10.5053C45.1532 10.7409 43.1874 11.8207 41.9459 13.2375C40.8695 14.4661 40.14 15.9936 39.9251 17.4685C39.8574 17.9335 39.8848 18.9108 39.9671 18.9629C40.0633 19.0239 40.8206 19.0098 41.2231 18.9395C42.4455 18.7259 43.835 17.9816 44.859 16.9917C46.1019 15.7902 46.9925 14.1054 47.2897 12.3934C47.3699 11.9316 47.4104 11.0266 47.3644 10.7255C47.3302 10.5022 47.3277 10.4989 47.1865 10.4939C47.1077 10.4912 46.9879 10.4963 46.9202 10.5053ZM46.0865 19.4593C45.5724 19.5091 44.9062 19.6468 44.3241 19.8234C43.8099 19.9794 43.5082 20.0889 42.1076 20.6277C41.1312 21.0033 40.6968 21.1162 40.2337 21.1148C39.6582 21.1129 39.3393 21.0207 37.7724 20.4037C36.0714 19.7337 35.4913 19.5849 34.4466 19.5507C33.3896 19.516 32.5753 19.635 31.569 19.9711C29.1801 20.769 27.2151 22.5951 26.0955 25.0575C24.7464 28.0246 24.6406 31.8975 25.7934 36.1145C26.2284 37.7058 26.9602 39.5458 27.7063 40.9244C28.5585 42.499 30.0459 44.5615 31.1673 45.7233C31.8018 46.3807 32.3543 46.8104 32.9238 47.0893C33.4413 47.3427 33.8704 47.4558 34.4291 47.4862C35.2403 47.5303 35.9286 47.3698 37.2186 46.8357C37.6586 46.6536 38.2386 46.4315 38.5075 46.3422C39.3904 46.0491 40.4315 45.9291 41.3393 46.0159C42.2516 46.1032 42.7705 46.249 43.9316 46.7443C45.2625 47.3121 45.7653 47.4354 46.7356 47.4319C47.2383 47.4301 47.3921 47.4134 47.7286 47.3243C49.2587 46.9191 50.4726 45.8072 52.3486 43.0924C53.3831 41.5954 54.2735 39.8531 54.8398 38.2176C54.9763 37.8233 55.0232 37.6387 54.9895 37.6274C54.8586 37.5836 54.1461 37.1965 53.8734 37.0209C52.8327 36.3511 51.8833 35.4045 51.2654 34.4208C50.0338 32.4598 49.7388 29.8713 50.487 27.5897C51.0345 25.92 52.1659 24.4312 53.7157 23.3409C53.8927 23.2164 54.0375 23.0985 54.0375 23.0789C54.0375 22.9935 53.3546 22.1977 52.9254 21.783C51.5008 20.4064 49.6907 19.6305 47.4988 19.4569C46.908 19.4101 46.5887 19.4106 46.0865 19.4593Z" fill="white"/>
</svg>
