<svg width="11" height="16" viewBox="0 0 11 16" fill="none" xmlns="http://www.w3.org/2000/svg">
<path d="M7.33966 15.5C6.31232 15.4992 5.29655 15.2782 4.35792 14.8513C3.41929 14.4243 2.57865 13.801 1.89025 13.0214C1.19665 12.2408 0.673338 11.3185 0.355036 10.3154C0.0367341 9.31239 -0.0692814 8.25161 0.0440236 7.20349C0.226692 5.57232 0.922751 4.04596 2.02741 2.85422C3.13206 1.66247 4.58552 0.869839 6.16896 0.59566C7.19259 0.434027 8.2372 0.477542 9.24457 0.72378C9.50835 0.793063 9.74923 0.933148 9.94228 1.12954C10.1353 1.32593 10.2735 1.57149 10.3426 1.84081C10.4117 2.11013 10.4091 2.39342 10.3351 2.66138C10.2612 2.92934 10.1185 3.17223 9.92193 3.36491C7.13425 5.96855 7.37634 10.0171 10.4153 12.3708C10.6301 12.5432 10.7959 12.7713 10.8953 13.0314C10.9946 13.2915 11.024 13.5741 10.9803 13.8497C10.9366 14.1254 10.8215 14.384 10.6468 14.5988C10.4722 14.8135 10.2445 14.9764 9.98734 15.0706C9.13258 15.3561 8.23889 15.5011 7.33966 15.5ZM7.38612 1.75061C7.04289 1.74977 6.70011 1.7763 6.36092 1.82998C5.04259 2.05792 3.83236 2.71747 2.9124 3.70935C1.99244 4.70124 1.41253 5.97178 1.25996 7.32973C1.1646 8.20472 1.25249 9.09044 1.51779 9.92803C1.78309 10.7656 2.21973 11.5359 2.79869 12.1876C3.6462 13.1124 4.73801 13.7658 5.94165 14.0687C7.1453 14.3715 8.40905 14.3108 9.57958 13.8938C9.63004 13.8745 9.6746 13.8419 9.70876 13.7993C9.74292 13.7567 9.76545 13.7056 9.77407 13.6512C9.7827 13.5968 9.77711 13.5411 9.75788 13.4897C9.73865 13.4382 9.70645 13.3929 9.66456 13.3582C6.03997 10.5596 5.75203 5.55481 9.08502 2.45308C9.12326 2.41677 9.15085 2.37029 9.16467 2.31884C9.17849 2.26739 9.17801 2.21302 9.16327 2.16184C9.15056 2.10752 9.12357 2.05779 9.08521 2.01802C9.04685 1.97825 8.99858 1.94997 8.94563 1.93623C8.43502 1.81031 7.91138 1.74799 7.38612 1.75061Z" fill="#AEAEAE"/>
</svg>
