<svg width="207" height="61" viewBox="0 0 207 61" fill="none" xmlns="http://www.w3.org/2000/svg">
<rect width="207" height="61" rx="10" fill="black" fill-opacity="0.45"/>
<rect x="0.5" y="0.5" width="206" height="60" rx="9.5" stroke="#FEFEFE" stroke-opacity="0.24"/>
<path d="M81.4834 15.66C82.3714 15.66 83.1474 15.832 83.8114 16.176C84.4834 16.512 84.9994 17 85.3594 17.64C85.7274 18.272 85.9114 19.012 85.9114 19.86C85.9114 20.708 85.7274 21.444 85.3594 22.068C84.9994 22.692 84.4834 23.172 83.8114 23.508C83.1474 23.836 82.3714 24 81.4834 24H78.7594V15.66H81.4834ZM81.4834 22.884C82.4594 22.884 83.2074 22.62 83.7274 22.092C84.2474 21.564 84.5074 20.82 84.5074 19.86C84.5074 18.892 84.2474 18.136 83.7274 17.592C83.2074 17.048 82.4594 16.776 81.4834 16.776H80.1274V22.884H81.4834ZM90.1352 24.108C89.5112 24.108 88.9472 23.968 88.4432 23.688C87.9392 23.4 87.5432 23 87.2552 22.488C86.9672 21.968 86.8232 21.368 86.8232 20.688C86.8232 20.016 86.9712 19.42 87.2672 18.9C87.5632 18.38 87.9672 17.98 88.4792 17.7C88.9912 17.42 89.5632 17.28 90.1952 17.28C90.8272 17.28 91.3992 17.42 91.9112 17.7C92.4232 17.98 92.8272 18.38 93.1232 18.9C93.4192 19.42 93.5672 20.016 93.5672 20.688C93.5672 21.36 93.4152 21.956 93.1112 22.476C92.8072 22.996 92.3912 23.4 91.8632 23.688C91.3432 23.968 90.7672 24.108 90.1352 24.108ZM90.1352 22.92C90.4872 22.92 90.8152 22.836 91.1192 22.668C91.4312 22.5 91.6832 22.248 91.8752 21.912C92.0672 21.576 92.1632 21.168 92.1632 20.688C92.1632 20.208 92.0712 19.804 91.8872 19.476C91.7032 19.14 91.4592 18.888 91.1552 18.72C90.8512 18.552 90.5232 18.468 90.1712 18.468C89.8192 18.468 89.4912 18.552 89.1872 18.72C88.8912 18.888 88.6552 19.14 88.4792 19.476C88.3032 19.804 88.2152 20.208 88.2152 20.688C88.2152 21.4 88.3952 21.952 88.7552 22.344C89.1232 22.728 89.5832 22.92 90.1352 22.92ZM103.8 17.388L101.748 24H100.308L98.9755 19.116L97.6435 24H96.2035L94.1395 17.388H95.5315L96.9115 22.704L98.3155 17.388H99.7435L101.088 22.68L102.456 17.388H103.8ZM108.158 17.28C108.678 17.28 109.142 17.388 109.55 17.604C109.966 17.82 110.29 18.14 110.522 18.564C110.754 18.988 110.87 19.5 110.87 20.1V24H109.514V20.304C109.514 19.712 109.366 19.26 109.07 18.948C108.774 18.628 108.37 18.468 107.858 18.468C107.346 18.468 106.938 18.628 106.634 18.948C106.338 19.26 106.19 19.712 106.19 20.304V24H104.822V17.388H106.19V18.144C106.414 17.872 106.698 17.66 107.042 17.508C107.394 17.356 107.766 17.28 108.158 17.28ZM113.983 15.12V24H112.615V15.12H113.983ZM118.647 24.108C118.023 24.108 117.459 23.968 116.955 23.688C116.451 23.4 116.055 23 115.767 22.488C115.479 21.968 115.335 21.368 115.335 20.688C115.335 20.016 115.483 19.42 115.779 18.9C116.075 18.38 116.479 17.98 116.991 17.7C117.503 17.42 118.075 17.28 118.707 17.28C119.339 17.28 119.911 17.42 120.423 17.7C120.935 17.98 121.339 18.38 121.635 18.9C121.931 19.42 122.079 20.016 122.079 20.688C122.079 21.36 121.927 21.956 121.623 22.476C121.319 22.996 120.903 23.4 120.375 23.688C119.855 23.968 119.279 24.108 118.647 24.108ZM118.647 22.92C118.999 22.92 119.327 22.836 119.631 22.668C119.943 22.5 120.195 22.248 120.387 21.912C120.579 21.576 120.675 21.168 120.675 20.688C120.675 20.208 120.583 19.804 120.399 19.476C120.215 19.14 119.971 18.888 119.667 18.72C119.363 18.552 119.035 18.468 118.683 18.468C118.331 18.468 118.003 18.552 117.699 18.72C117.403 18.888 117.167 19.14 116.991 19.476C116.815 19.804 116.727 20.208 116.727 20.688C116.727 21.4 116.907 21.952 117.267 22.344C117.635 22.728 118.095 22.92 118.647 22.92ZM122.975 20.664C122.975 20 123.111 19.412 123.383 18.9C123.663 18.388 124.039 17.992 124.511 17.712C124.991 17.424 125.519 17.28 126.095 17.28C126.615 17.28 127.067 17.384 127.451 17.592C127.843 17.792 128.155 18.044 128.387 18.348V17.388H129.767V24H128.387V23.016C128.155 23.328 127.839 23.588 127.439 23.796C127.039 24.004 126.583 24.108 126.071 24.108C125.503 24.108 124.983 23.964 124.511 23.676C124.039 23.38 123.663 22.972 123.383 22.452C123.111 21.924 122.975 21.328 122.975 20.664ZM128.387 20.688C128.387 20.232 128.291 19.836 128.099 19.5C127.915 19.164 127.671 18.908 127.367 18.732C127.063 18.556 126.735 18.468 126.383 18.468C126.031 18.468 125.703 18.556 125.399 18.732C125.095 18.9 124.847 19.152 124.655 19.488C124.471 19.816 124.379 20.208 124.379 20.664C124.379 21.12 124.471 21.52 124.655 21.864C124.847 22.208 125.095 22.472 125.399 22.656C125.711 22.832 126.039 22.92 126.383 22.92C126.735 22.92 127.063 22.832 127.367 22.656C127.671 22.48 127.915 22.224 128.099 21.888C128.291 21.544 128.387 21.144 128.387 20.688ZM131.108 20.664C131.108 20 131.244 19.412 131.516 18.9C131.796 18.388 132.172 17.992 132.644 17.712C133.124 17.424 133.656 17.28 134.24 17.28C134.672 17.28 135.096 17.376 135.512 17.568C135.936 17.752 136.272 18 136.52 18.312V15.12H137.9V24H136.52V23.004C136.296 23.324 135.984 23.588 135.584 23.796C135.192 24.004 134.74 24.108 134.228 24.108C133.652 24.108 133.124 23.964 132.644 23.676C132.172 23.38 131.796 22.972 131.516 22.452C131.244 21.924 131.108 21.328 131.108 20.664ZM136.52 20.688C136.52 20.232 136.424 19.836 136.232 19.5C136.048 19.164 135.804 18.908 135.5 18.732C135.196 18.556 134.868 18.468 134.516 18.468C134.164 18.468 133.836 18.556 133.532 18.732C133.228 18.9 132.98 19.152 132.788 19.488C132.604 19.816 132.512 20.208 132.512 20.664C132.512 21.12 132.604 21.52 132.788 21.864C132.98 22.208 133.228 22.472 133.532 22.656C133.844 22.832 134.172 22.92 134.516 22.92C134.868 22.92 135.196 22.832 135.5 22.656C135.804 22.48 136.048 22.224 136.232 21.888C136.424 21.544 136.52 21.144 136.52 20.688ZM145.682 24.108C145.058 24.108 144.494 23.968 143.99 23.688C143.486 23.4 143.09 23 142.802 22.488C142.514 21.968 142.37 21.368 142.37 20.688C142.37 20.016 142.518 19.42 142.814 18.9C143.11 18.38 143.514 17.98 144.026 17.7C144.538 17.42 145.11 17.28 145.742 17.28C146.374 17.28 146.946 17.42 147.458 17.7C147.97 17.98 148.374 18.38 148.67 18.9C148.966 19.42 149.114 20.016 149.114 20.688C149.114 21.36 148.962 21.956 148.658 22.476C148.354 22.996 147.938 23.4 147.41 23.688C146.89 23.968 146.314 24.108 145.682 24.108ZM145.682 22.92C146.034 22.92 146.362 22.836 146.666 22.668C146.978 22.5 147.23 22.248 147.422 21.912C147.614 21.576 147.71 21.168 147.71 20.688C147.71 20.208 147.618 19.804 147.434 19.476C147.25 19.14 147.006 18.888 146.702 18.72C146.398 18.552 146.07 18.468 145.718 18.468C145.366 18.468 145.038 18.552 144.734 18.72C144.438 18.888 144.202 19.14 144.026 19.476C143.85 19.804 143.762 20.208 143.762 20.688C143.762 21.4 143.942 21.952 144.302 22.344C144.67 22.728 145.13 22.92 145.682 22.92ZM153.802 17.28C154.322 17.28 154.786 17.388 155.194 17.604C155.61 17.82 155.934 18.14 156.166 18.564C156.398 18.988 156.514 19.5 156.514 20.1V24H155.158V20.304C155.158 19.712 155.01 19.26 154.714 18.948C154.418 18.628 154.014 18.468 153.502 18.468C152.99 18.468 152.582 18.628 152.278 18.948C151.982 19.26 151.834 19.712 151.834 20.304V24H150.466V17.388H151.834V18.144C152.058 17.872 152.342 17.66 152.686 17.508C153.038 17.356 153.41 17.28 153.802 17.28ZM162.973 18.504V22.164C162.973 22.412 163.029 22.592 163.141 22.704C163.261 22.808 163.461 22.86 163.741 22.86H164.581V24H163.501C162.885 24 162.413 23.856 162.085 23.568C161.757 23.28 161.593 22.812 161.593 22.164V18.504H160.813V17.388H161.593V15.744H162.973V17.388H164.581V18.504H162.973ZM169.261 17.28C169.765 17.28 170.213 17.388 170.605 17.604C171.005 17.82 171.317 18.14 171.541 18.564C171.773 18.988 171.889 19.5 171.889 20.1V24H170.533V20.304C170.533 19.712 170.385 19.26 170.089 18.948C169.793 18.628 169.389 18.468 168.877 18.468C168.365 18.468 167.957 18.628 167.653 18.948C167.357 19.26 167.209 19.712 167.209 20.304V24H165.841V15.12H167.209V18.156C167.441 17.876 167.733 17.66 168.085 17.508C168.445 17.356 168.837 17.28 169.261 17.28ZM179.694 20.532C179.694 20.78 179.678 21.004 179.646 21.204H174.594C174.634 21.732 174.83 22.156 175.182 22.476C175.534 22.796 175.966 22.956 176.478 22.956C177.214 22.956 177.734 22.648 178.038 22.032H179.514C179.314 22.64 178.95 23.14 178.422 23.532C177.902 23.916 177.254 24.108 176.478 24.108C175.846 24.108 175.278 23.968 174.774 23.688C174.278 23.4 173.886 23 173.598 22.488C173.318 21.968 173.178 21.368 173.178 20.688C173.178 20.008 173.314 19.412 173.586 18.9C173.866 18.38 174.254 17.98 174.75 17.7C175.254 17.42 175.83 17.28 176.478 17.28C177.102 17.28 177.658 17.416 178.146 17.688C178.634 17.96 179.014 18.344 179.286 18.84C179.558 19.328 179.694 19.892 179.694 20.532ZM178.266 20.1C178.258 19.596 178.078 19.192 177.726 18.888C177.374 18.584 176.938 18.432 176.418 18.432C175.946 18.432 175.542 18.584 175.206 18.888C174.87 19.184 174.67 19.588 174.606 20.1H178.266ZM89.6124 42.16H83.7924L82.7924 45H80.4124L85.3924 31.08H88.0324L93.0124 45H90.6124L89.6124 42.16ZM88.9724 40.3L86.7124 33.84L84.4324 40.3H88.9724ZM97.4577 35.6C97.8444 35.0933 98.3711 34.6667 99.0377 34.32C99.7044 33.9733 100.458 33.8 101.298 33.8C102.258 33.8 103.131 34.04 103.918 34.52C104.718 34.9867 105.344 35.6467 105.798 36.5C106.251 37.3533 106.478 38.3333 106.478 39.44C106.478 40.5467 106.251 41.54 105.798 42.42C105.344 43.2867 104.718 43.9667 103.918 44.46C103.131 44.94 102.258 45.18 101.298 45.18C100.458 45.18 99.7111 45.0133 99.0577 44.68C98.4044 44.3333 97.8711 43.9067 97.4577 43.4V50.24H95.1777V33.98H97.4577V35.6ZM104.158 39.44C104.158 38.68 103.998 38.0267 103.678 37.48C103.371 36.92 102.958 36.5 102.438 36.22C101.931 35.9267 101.384 35.78 100.798 35.78C100.224 35.78 99.6777 35.9267 99.1577 36.22C98.6511 36.5133 98.2377 36.94 97.9177 37.5C97.6111 38.06 97.4577 38.72 97.4577 39.48C97.4577 40.24 97.6111 40.9067 97.9177 41.48C98.2377 42.04 98.6511 42.4667 99.1577 42.76C99.6777 43.0533 100.224 43.2 100.798 43.2C101.384 43.2 101.931 43.0533 102.438 42.76C102.958 42.4533 103.371 42.0133 103.678 41.44C103.998 40.8667 104.158 40.2 104.158 39.44ZM111.012 35.6C111.399 35.0933 111.926 34.6667 112.592 34.32C113.259 33.9733 114.012 33.8 114.852 33.8C115.812 33.8 116.686 34.04 117.472 34.52C118.272 34.9867 118.899 35.6467 119.352 36.5C119.806 37.3533 120.032 38.3333 120.032 39.44C120.032 40.5467 119.806 41.54 119.352 42.42C118.899 43.2867 118.272 43.9667 117.472 44.46C116.686 44.94 115.812 45.18 114.852 45.18C114.012 45.18 113.266 45.0133 112.612 44.68C111.959 44.3333 111.426 43.9067 111.012 43.4V50.24H108.732V33.98H111.012V35.6ZM117.712 39.44C117.712 38.68 117.552 38.0267 117.232 37.48C116.926 36.92 116.512 36.5 115.992 36.22C115.486 35.9267 114.939 35.78 114.352 35.78C113.779 35.78 113.232 35.9267 112.712 36.22C112.206 36.5133 111.792 36.94 111.472 37.5C111.166 38.06 111.012 38.72 111.012 39.48C111.012 40.24 111.166 40.9067 111.472 41.48C111.792 42.04 112.206 42.4667 112.712 42.76C113.232 43.0533 113.779 43.2 114.352 43.2C114.939 43.2 115.486 43.0533 115.992 42.76C116.512 42.4533 116.926 42.0133 117.232 41.44C117.552 40.8667 117.712 40.2 117.712 39.44ZM132.062 45.14C131.129 45.14 130.289 44.98 129.542 44.66C128.796 44.3267 128.209 43.86 127.782 43.26C127.356 42.66 127.142 41.96 127.142 41.16H129.582C129.636 41.76 129.869 42.2533 130.282 42.64C130.709 43.0267 131.302 43.22 132.062 43.22C132.849 43.22 133.462 43.0333 133.902 42.66C134.342 42.2733 134.562 41.78 134.562 41.18C134.562 40.7133 134.422 40.3333 134.142 40.04C133.876 39.7467 133.536 39.52 133.122 39.36C132.722 39.2 132.162 39.0267 131.442 38.84C130.536 38.6 129.796 38.36 129.222 38.12C128.662 37.8667 128.182 37.48 127.782 36.96C127.382 36.44 127.182 35.7467 127.182 34.88C127.182 34.08 127.382 33.38 127.782 32.78C128.182 32.18 128.742 31.72 129.462 31.4C130.182 31.08 131.016 30.92 131.962 30.92C133.309 30.92 134.409 31.26 135.262 31.94C136.129 32.6067 136.609 33.5267 136.702 34.7H134.182C134.142 34.1933 133.902 33.76 133.462 33.4C133.022 33.04 132.442 32.86 131.722 32.86C131.069 32.86 130.536 33.0267 130.122 33.36C129.709 33.6933 129.502 34.1733 129.502 34.8C129.502 35.2267 129.629 35.58 129.882 35.86C130.149 36.1267 130.482 36.34 130.882 36.5C131.282 36.66 131.829 36.8333 132.522 37.02C133.442 37.2733 134.189 37.5267 134.762 37.78C135.349 38.0333 135.842 38.4267 136.242 38.96C136.656 39.48 136.862 40.18 136.862 41.06C136.862 41.7667 136.669 42.4333 136.282 43.06C135.909 43.6867 135.356 44.1933 134.622 44.58C133.902 44.9533 133.049 45.14 132.062 45.14ZM142.213 35.84V41.94C142.213 42.3533 142.306 42.6533 142.493 42.84C142.693 43.0133 143.026 43.1 143.493 43.1H144.893V45H143.093C142.066 45 141.279 44.76 140.733 44.28C140.186 43.8 139.913 43.02 139.913 41.94V35.84H138.613V33.98H139.913V31.24H142.213V33.98H144.893V35.84H142.213ZM151.774 45.18C150.734 45.18 149.794 44.9467 148.954 44.48C148.114 44 147.454 43.3333 146.974 42.48C146.494 41.6133 146.254 40.6133 146.254 39.48C146.254 38.36 146.501 37.3667 146.994 36.5C147.487 35.6333 148.161 34.9667 149.014 34.5C149.867 34.0333 150.821 33.8 151.874 33.8C152.927 33.8 153.881 34.0333 154.734 34.5C155.587 34.9667 156.261 35.6333 156.754 36.5C157.247 37.3667 157.494 38.36 157.494 39.48C157.494 40.6 157.241 41.5933 156.734 42.46C156.227 43.3267 155.534 44 154.654 44.48C153.787 44.9467 152.827 45.18 151.774 45.18ZM151.774 43.2C152.361 43.2 152.907 43.06 153.414 42.78C153.934 42.5 154.354 42.08 154.674 41.52C154.994 40.96 155.154 40.28 155.154 39.48C155.154 38.68 155.001 38.0067 154.694 37.46C154.387 36.9 153.981 36.48 153.474 36.2C152.967 35.92 152.421 35.78 151.834 35.78C151.247 35.78 150.701 35.92 150.194 36.2C149.701 36.48 149.307 36.9 149.014 37.46C148.721 38.0067 148.574 38.68 148.574 39.48C148.574 40.6667 148.874 41.5867 149.474 42.24C150.087 42.88 150.854 43.2 151.774 43.2ZM162.028 35.58C162.361 35.02 162.801 34.5867 163.348 34.28C163.908 33.96 164.568 33.8 165.328 33.8V36.16H164.748C163.855 36.16 163.175 36.3867 162.708 36.84C162.255 37.2933 162.028 38.08 162.028 39.2V45H159.748V33.98H162.028V35.58ZM177.524 39.22C177.524 39.6333 177.497 40.0067 177.444 40.34H169.024C169.09 41.22 169.417 41.9267 170.004 42.46C170.59 42.9933 171.31 43.26 172.164 43.26C173.39 43.26 174.257 42.7467 174.764 41.72H177.224C176.89 42.7333 176.284 43.5667 175.404 44.22C174.537 44.86 173.457 45.18 172.164 45.18C171.11 45.18 170.164 44.9467 169.324 44.48C168.497 44 167.844 43.3333 167.364 42.48C166.897 41.6133 166.664 40.6133 166.664 39.48C166.664 38.3467 166.89 37.3533 167.344 36.5C167.81 35.6333 168.457 34.9667 169.284 34.5C170.124 34.0333 171.084 33.8 172.164 33.8C173.204 33.8 174.13 34.0267 174.944 34.48C175.757 34.9333 176.39 35.5733 176.844 36.4C177.297 37.2133 177.524 38.1533 177.524 39.22ZM175.144 38.5C175.13 37.66 174.83 36.9867 174.244 36.48C173.657 35.9733 172.93 35.72 172.064 35.72C171.277 35.72 170.604 35.9733 170.044 36.48C169.484 36.9733 169.15 37.6467 169.044 38.5H175.144Z" fill="white"/>
<path fill-rule="evenodd" clip-rule="evenodd" d="M46.9202 10.0121C45.1532 10.2478 43.1874 11.3275 41.9459 12.7444C40.8695 13.9729 40.14 15.5004 39.9251 16.9754C39.8574 17.4403 39.8848 18.4176 39.9671 18.4697C40.0633 18.5308 40.8206 18.5167 41.2231 18.4463C42.4455 18.2328 43.835 17.4884 44.859 16.4985C46.1019 15.2971 46.9925 13.6122 47.2897 11.9002C47.3699 11.4384 47.4104 10.5334 47.3644 10.2323C47.3302 10.009 47.3277 10.0057 47.1865 10.0007C47.1077 9.99799 46.9879 10.0031 46.9202 10.0121ZM46.0865 18.9661C45.5724 19.016 44.9062 19.1536 44.3241 19.3302C43.8099 19.4862 43.5082 19.5957 42.1076 20.1346C41.1312 20.5102 40.6968 20.6231 40.2337 20.6216C39.6582 20.6197 39.3393 20.5276 37.7724 19.9105C36.0714 19.2405 35.4913 19.0918 34.4466 19.0575C33.3896 19.0229 32.5753 19.1418 31.569 19.478C29.1801 20.2759 27.2151 22.1019 26.0955 24.5643C24.7464 27.5315 24.6406 31.4044 25.7934 35.6213C26.2284 37.2127 26.9602 39.0526 27.7063 40.4312C28.5585 42.0059 30.0459 44.0683 31.1673 45.2302C31.8018 45.8876 32.3543 46.3172 32.9238 46.5961C33.4413 46.8495 33.8704 46.9627 34.4291 46.9931C35.2403 47.0371 35.9286 46.8767 37.2186 46.3426C37.6586 46.1604 38.2386 45.9383 38.5075 45.849C39.3904 45.5559 40.4315 45.4359 41.3393 45.5227C42.2516 45.61 42.7705 45.7558 43.9316 46.2511C45.2625 46.819 45.7653 46.9422 46.7356 46.9387C47.2383 46.9369 47.3921 46.9203 47.7286 46.8312C49.2587 46.426 50.4726 45.3141 52.3486 42.5993C53.3831 41.1022 54.2735 39.3599 54.8398 37.7244C54.9763 37.3301 55.0232 37.1455 54.9895 37.1342C54.8586 37.0904 54.1461 36.7033 53.8734 36.5277C52.8327 35.8579 51.8833 34.9114 51.2654 33.9276C50.0338 31.9666 49.7388 29.3781 50.487 27.0966C51.0345 25.4268 52.1659 23.938 53.7157 22.8477C53.8927 22.7232 54.0375 22.6054 54.0375 22.5858C54.0375 22.5003 53.3546 21.7046 52.9254 21.2898C51.5008 19.9133 49.6907 19.1374 47.4988 18.9638C46.908 18.9169 46.5887 18.9175 46.0865 18.9661Z" fill="white"/>
</svg>
