<svg width="15" height="15" viewBox="0 0 15 15" fill="none" xmlns="http://www.w3.org/2000/svg">
<path d="M15.8169 13.9331L12.0862 10.2025C13.1029 8.95911 13.6027 7.37255 13.4824 5.77096C13.3621 4.16938 12.6307 2.67532 11.4397 1.59781C10.2487 0.520305 8.68911 -0.0582066 7.08351 -0.0180617C5.47792 0.0220832 3.94918 0.677813 2.81349 1.81349C1.67781 2.94918 1.02208 4.47792 0.981938 6.08351C0.941793 7.68911 1.52031 9.24871 2.59781 10.4397C3.67532 11.6307 5.16938 12.3621 6.77096 12.4824C8.37255 12.6027 9.95911 12.1029 11.2025 11.0862L14.9331 14.8169C15.051 14.9307 15.2089 14.9937 15.3727 14.9923C15.5366 14.9909 15.6934 14.9251 15.8093 14.8093C15.9251 14.6934 15.9909 14.5366 15.9923 14.3727C15.9937 14.2089 15.9307 14.051 15.8169 13.9331ZM7.24999 11.25C6.26108 11.25 5.29438 10.9567 4.47214 10.4073C3.64989 9.85793 3.00903 9.07704 2.63059 8.16341C2.25215 7.24977 2.15313 6.24444 2.34606 5.27454C2.53899 4.30463 3.01519 3.41372 3.71445 2.71445C4.41372 2.01519 5.30463 1.53899 6.27454 1.34606C7.24444 1.15313 8.24978 1.25215 9.16341 1.63059C10.077 2.00903 10.8579 2.64989 11.4073 3.47214C11.9567 4.29438 12.25 5.26108 12.25 6.24999C12.2485 7.57561 11.7212 8.84652 10.7839 9.78388C9.84652 10.7212 8.57561 11.2485 7.24999 11.25Z" fill="#AEAEAE"/>
</svg>
