<svg width="17" height="17" viewBox="0 0 17 17" fill="none" xmlns="http://www.w3.org/2000/svg">
<g clip-path="url(#clip0_688_2225)">
<path d="M4.95833 4.25004H16.2917C16.4795 4.25004 16.6597 4.17541 16.7925 4.04257C16.9254 3.90973 17 3.72957 17 3.54171C17 3.35385 16.9254 3.17368 16.7925 3.04084C16.6597 2.908 16.4795 2.83337 16.2917 2.83337H4.95833C4.77047 2.83337 4.5903 2.908 4.45747 3.04084C4.32463 3.17368 4.25 3.35385 4.25 3.54171C4.25 3.72957 4.32463 3.90973 4.45747 4.04257C4.5903 4.17541 4.77047 4.25004 4.95833 4.25004Z" fill="#FBFBFB"/>
<path d="M16.2917 7.79163H4.95833C4.77047 7.79163 4.5903 7.86625 4.45747 7.99909C4.32463 8.13193 4.25 8.3121 4.25 8.49996C4.25 8.68782 4.32463 8.86799 4.45747 9.00082C4.5903 9.13366 4.77047 9.20829 4.95833 9.20829H16.2917C16.4795 9.20829 16.6597 9.13366 16.7925 9.00082C16.9254 8.86799 17 8.68782 17 8.49996C17 8.3121 16.9254 8.13193 16.7925 7.99909C16.6597 7.86625 16.4795 7.79163 16.2917 7.79163Z" fill="#FBFBFB"/>
<path d="M16.2917 12.75H4.95833C4.77047 12.75 4.5903 12.8246 4.45747 12.9575C4.32463 13.0903 4.25 13.2705 4.25 13.4583C4.25 13.6462 4.32463 13.8264 4.45747 13.9592C4.5903 14.092 4.77047 14.1667 4.95833 14.1667H16.2917C16.4795 14.1667 16.6597 14.092 16.7925 13.9592C16.9254 13.8264 17 13.6462 17 13.4583C17 13.2705 16.9254 13.0903 16.7925 12.9575C16.6597 12.8246 16.4795 12.75 16.2917 12.75Z" fill="#FBFBFB"/>
<path d="M1.41667 4.95833C2.19907 4.95833 2.83333 4.32407 2.83333 3.54167C2.83333 2.75926 2.19907 2.125 1.41667 2.125C0.634263 2.125 0 2.75926 0 3.54167C0 4.32407 0.634263 4.95833 1.41667 4.95833Z" fill="#FBFBFB"/>
<path d="M1.41667 9.91671C2.19907 9.91671 2.83333 9.28245 2.83333 8.50004C2.83333 7.71764 2.19907 7.08337 1.41667 7.08337C0.634263 7.08337 0 7.71764 0 8.50004C0 9.28245 0.634263 9.91671 1.41667 9.91671Z" fill="#FBFBFB"/>
<path d="M1.41667 14.875C2.19907 14.875 2.83333 14.2407 2.83333 13.4583C2.83333 12.6759 2.19907 12.0416 1.41667 12.0416C0.634263 12.0416 0 12.6759 0 13.4583C0 14.2407 0.634263 14.875 1.41667 14.875Z" fill="#FBFBFB"/>
</g>
<defs>
<clipPath id="clip0_688_2225">
<rect width="17" height="17" fill="white"/>
</clipPath>
</defs>
</svg>
