<svg width="22" height="22" viewBox="0 0 22 22" fill="none" xmlns="http://www.w3.org/2000/svg">
<rect width="22" height="22" rx="3" fill="white" fill-opacity="0.1"/>
<path d="M17.3536 7.35355C17.5488 7.15829 17.5488 6.84171 17.3536 6.64645L14.1716 3.46447C13.9763 3.2692 13.6597 3.2692 13.4645 3.46447C13.2692 3.65973 13.2692 3.97631 13.4645 4.17157L16.2929 7L13.4645 9.82843C13.2692 10.0237 13.2692 10.3403 13.4645 10.5355C13.6597 10.7308 13.9763 10.7308 14.1716 10.5355L17.3536 7.35355ZM5 7.5H17V6.5H5V7.5Z" fill="#616161"/>
<path d="M4.64645 14.6464C4.45118 14.8417 4.45118 15.1583 4.64645 15.3536L7.82843 18.5355C8.02369 18.7308 8.34027 18.7308 8.53553 18.5355C8.7308 18.3403 8.7308 18.0237 8.53553 17.8284L5.70711 15L8.53553 12.1716C8.7308 11.9763 8.7308 11.6597 8.53553 11.4645C8.34027 11.2692 8.02369 11.2692 7.82843 11.4645L4.64645 14.6464ZM17 14.5L5 14.5L5 15.5L17 15.5L17 14.5Z" fill="#AEAEAE"/>
</svg>
